<?xml version="1.0"?>
<svg xmlns="http://www.w3.org/2000/svg" xmlns:xlink="http://www.w3.org/1999/xlink" version="1.1" id="Layer_1" x="0px" y="0px" viewBox="0 0 512.801 512.801" style="enable-background:new 0 0 512.801 512.801;" xml:space="preserve" width="512px" height="512px"><g><g>
	<g>
		<path d="M333.146,342.434l-63.802-80.439c-3.036-3.828-7.652-6.059-12.537-6.058c-4.885,0.001-9.501,2.232-12.536,6.059    l-64.222,80.989c-3.814,4.809-4.54,11.377-1.869,16.903c2.671,5.526,8.268,9.038,14.406,9.038h15.375v63.997    c0,8.837,7.164,16,16,16h63.998c8.837,0,16-7.163,16-16v-63.997h17.087c0.006,0,0.013,0,0.021,0c8.836,0,16-7.163,16-16    C337.067,348.912,335.588,345.244,333.146,342.434z M271.959,352.926v63.997h-31.998v-63.997c0-8.274-6.28-15.082-14.335-15.914    l31.184-39.326l31.124,39.24C279.108,336.94,271.959,344.098,271.959,352.926z" data-original="#000000" class="active-path" data-old_color="#000000" fill="#FFFFFF"/>
	</g>
</g><g>
	<g>
		<path d="M482.66,189.486c-19.026-18.96-44.047-29.566-70.609-29.968c-7.636-14.216-18.557-26.424-32.032-35.705    c-17.021-11.724-36.948-17.921-57.629-17.921c-13.299,0-26.344,2.561-38.473,7.494c-7.293-12.212-17.102-22.79-28.944-31.106    c-17.141-12.039-37.281-18.402-58.243-18.402c-53.894,0-98.119,42.259-101.373,95.432C42.233,162.526,0,206.854,0,260.881    c0,26.557,9.585,53.3,26.299,73.372c18.12,21.761,42.734,34.073,69.307,34.669c0.12,0.003,0.239,0.004,0.359,0.004h49.679    c8.836,0,16.001-7.161,16.001-15.998c0-8.837-7.164-16-16-16H96.154c-38.384-0.974-64.153-40.068-64.153-76.045    c0-38.465,31.199-69.758,69.549-69.758c2.471,0,5.149,0.168,8.427,0.528c4.849,0.531,9.681-1.178,13.116-4.645    c3.435-3.468,5.099-8.314,4.519-13.16c-0.301-2.515-0.447-5.211-0.447-8.244c0-38.447,31.207-69.725,69.565-69.725    c28.656,0,54.777,18.017,65,44.833c1.707,4.479,5.333,7.957,9.88,9.476c4.546,1.521,9.534,0.919,13.592-1.633    c11.084-6.975,23.943-10.662,37.188-10.662c28.649,0,54.065,17.187,64.751,43.787c2.673,6.652,9.433,10.716,16.572,9.942    c1.287-0.14,3.368-0.129,5.207-0.12l1.563,0.005c38.773,0,70.317,31.473,70.317,70.158c0,38.68-29.201,69.626-66.479,70.449    c-0.107,0.002-0.215,0.006-0.321,0.011l-38.637,1.631c-8.83,0.372-15.684,7.832-15.311,16.66c0.373,8.83,7.841,15.68,16.66,15.311    l38.488-1.625c26.56-0.632,51.263-11.683,69.575-31.129c18.073-19.195,28.026-44.519,28.026-71.309    C512.801,234.489,502.097,208.856,482.66,189.486z" data-original="#000000" class="active-path" data-old_color="#000000" fill="#FFFFFF"/>
	</g>
</g></g> </svg>
